# File created by Blade
# Date/Time:  Wed Jan 21 15:15:22 2015
# Frame Rate: 120.000 fps
#------------------------------------------------------
:FULLY-SPECIFIED
:DEGREES
1025
root 24.101097 33.286515 -13.203672 180.441854 -59.887210 -175.909837
Spine -2.005219 14.441049 -20.567894
Head -1.345929 9.956392 17.637240
LeftShoulder -9.871939 -26.697480 9.713123
LeftArm -20.141072 5.031506 -46.223261
LeftForeArm -3.791799 -0.000000 11.543424
LeftHand -1.019298 -0.000000 4.636829
LeftHandThumb1 -26.253704 0.000000 33.147579
RightShoulder -5.390890 -1.772904 4.425620
RightArm 28.844224 19.472867 59.050333
RightForeArm -30.312181 -0.000000 32.472668
RightHand -8.055598 -0.000000 -3.553333
RightHandThumb1 -24.326973 -0.000000 -32.862282
LeftUpLeg -34.056694 21.422546 -19.338795
LeftLeg 30.610643 -0.000000 -0.000000
LeftFoot -31.651168 33.119716 -13.854375
LeftToeBase 22.775485 -0.000000 -0.000000
RightUpLeg -0.982130 -15.232574 15.179376
RightLeg 35.481636 -0.000000 -0.000000
RightFoot -28.908241 -24.003952 20.899199
RightToeBase -5.305552 -0.000000 0.000000
1026
root 24.194710 33.045150 -13.050484 180.461682 -59.654945 -176.307379
Spine -1.860878 14.919408 -20.016372
Head -1.057267 9.621287 17.066705
LeftShoulder -10.171898 -26.576947 9.564692
LeftArm -20.640521 4.826455 -46.340623
LeftForeArm -3.974138 -0.000000 11.319963
LeftHand -1.083554 -0.000000 4.679889
LeftHandThumb1 -26.253704 0.000000 33.147579
RightShoulder -5.171804 -1.339284 4.465824
RightArm 29.502782 18.521518 58.143133
RightForeArm -30.649507 -0.000000 34.239976
RightHand -8.215787 -0.000000 -3.820944
RightHandThumb1 -24.326973 -0.000000 -32.862282
LeftUpLeg -35.046623 21.184128 -19.630915
LeftLeg 32.558003 -0.000000 -0.000000
LeftFoot -32.463668 33.533563 -13.960547
LeftToeBase 22.570049 -0.000000 -0.000000
RightUpLeg -0.321266 -14.355918 15.141857
RightLeg 35.013155 -0.000000 -0.000000
RightFoot -32.502319 -24.139351 21.556018
RightToeBase -3.322511 -0.000000 0.000000
1027
root 24.286332 32.806640 -12.909108 180.355371 -59.355708 -176.530450
Spine -1.776704 15.458115 -19.408434
Head -0.746203 9.305936 16.564241
LeftShoulder -10.487929 -26.398727 9.376883
LeftArm -21.040503 4.501642 -46.396040
LeftForeArm -4.120798 -0.000000 11.069387
LeftHand -1.249221 -0.000000 4.837743
LeftHandThumb1 -26.253704 0.000000 33.147579
RightShoulder -5.079761 -1.162272 4.551231
RightArm 30.625145 17.920115 57.663023
RightForeArm -31.531879 -0.000000 35.794054
RightHand -8.268087 0.000000 -3.615173
RightHandThumb1 -24.326973 -0.000000 -32.862282
LeftUpLeg -36.059663 21.133032 -19.875309
LeftLeg 34.452307 -0.000000 -0.000000
LeftFoot -33.317103 33.849690 -14.050692
LeftToeBase 22.526805 -0.000000 -0.000000
RightUpLeg 0.306642 -13.218788 15.245688
RightLeg 34.458571 -0.000000 -0.000000
RightFoot -35.966471 -24.481633 21.743343
RightToeBase -0.637562 -0.000000 0.000000
1028
root 24.372305 32.571047 -12.781208 179.923664 -59.238951 -176.447484
Spine -1.553890 15.821145 -18.583369
Head -0.438138 8.991407 16.069240
LeftShoulder -10.842134 -26.233350 9.146480
LeftArm -21.428377 4.278463 -46.470108
LeftForeArm -4.283073 0.000000 10.777083
LeftHand -1.392316 -0.000000 4.929511
LeftHandThumb1 -26.253704 0.000000 33.147579
RightShoulder -4.975327 -0.982165 4.711788
RightArm 31.675897 17.310449 57.109774
RightForeArm -32.343513 0.000000 37.458702
RightHand -8.374478 -0.000000 -3.423863
RightHandThumb1 -24.326973 -0.000000 -32.862282
LeftUpLeg -36.971374 20.999780 -19.928218
LeftLeg 36.356064 -0.000000 -0.000000
LeftFoot -34.162872 34.090114 -14.187252
LeftToeBase 22.463807 -0.000000 -0.000000
RightUpLeg 0.906319 -12.263823 15.479862
RightLeg 34.002780 -0.000000 -0.000000
RightFoot -39.021706 -24.965816 21.609279
RightToeBase 1.905842 -0.000000 -0.000000
1029
root 24.486117 32.347332 -12.660055 179.460902 -58.783749 -176.039650
Spine -1.698409 16.403761 -17.719287
Head -0.109993 8.681491 15.656056
LeftShoulder -11.165860 -26.160768 8.901842
LeftArm -21.970672 3.985617 -46.463811
LeftForeArm -4.391228 -0.000000 10.580550
LeftHand -1.535153 0.000000 4.900134
LeftHandThumb1 -26.253704 0.000000 33.147579
RightShoulder -4.950406 -0.911111 4.939695
RightArm 32.847228 16.591036 56.543130
RightForeArm -33.044591 -0.000000 39.029624
RightHand -8.187695 -0.000000 -3.235628
RightHandThumb1 -24.326973 -0.000000 -32.862282
LeftUpLeg -38.245866 21.202375 -19.951181
LeftLeg 38.184805 -0.000000 -0.000000
LeftFoot -34.873452 34.282500 -14.152474
LeftToeBase 22.433678 -0.000000 -0.000000
RightUpLeg 1.037763 -10.648343 16.032694
RightLeg 33.933276 -0.000000 -0.000000
RightFoot -41.953457 -25.395638 22.250942
RightToeBase 3.831843 -0.000000 -0.000000
1030
root 24.595911 32.133439 -12.554950 178.754200 -58.493562 -175.350847
Spine -1.789914 16.894244 -16.699241
Head 0.221764 8.310718 15.299862
LeftShoulder -11.427442 -26.138372 8.594648
LeftArm -22.539434 3.751939 -46.445650
LeftForeArm -4.467147 -0.000000 10.394127
LeftHand -1.738493 -0.000000 4.973031
LeftHandThumb1 -26.253704 0.000000 33.147579
RightShoulder -5.030603 -0.904953 5.239795
RightArm 34.065903 15.866293 55.950894
RightForeArm -33.778561 -0.000000 40.553261
RightHand -8.333228 -0.000000 -3.016340
RightHandThumb1 -24.326973 -0.000000 -32.862282
LeftUpLeg -39.433338 21.311371 -19.817883
LeftLeg 39.922687 -0.000000 -0.000000
LeftFoot -35.437169 34.495201 -13.960935
LeftToeBase 22.257676 -0.000000 -0.000000
RightUpLeg 1.125210 -9.196632 16.757149
RightLeg 33.893254 -0.000000 -0.000000
RightFoot -44.599528 -25.966448 22.755103
RightToeBase 5.627977 -0.000000 -0.000000
1031
root 24.698818 31.934674 -12.458941 178.005146 -58.109959 -174.554786
Spine -1.999972 17.457188 -15.667917
Head 0.610334 7.908664 15.031894
LeftShoulder -11.659849 -26.028925 8.261037
LeftArm -23.110974 3.366844 -46.377160
LeftForeArm -4.587166 -0.000000 10.222042
LeftHand -1.792067 0.000000 4.914849
LeftHandThumb1 -26.253704 0.000000 33.147579
RightShoulder -5.122299 -0.938066 5.560982
RightArm 35.182251 15.194643 55.494173
RightForeArm -34.489694 -0.000000 42.108357
RightHand -8.263563 -0.000000 -2.790850
RightHandThumb1 -24.326973 -0.000000 -32.862282
LeftUpLeg -40.651768 21.613890 -19.678352
LeftLeg 41.571953 -0.000000 -0.000000
LeftFoot -36.016398 34.610405 -13.853152
LeftToeBase 22.142944 -0.000000 -0.000000
RightUpLeg 1.140806 -7.763767 17.508347
RightLeg 33.955017 -0.000000 -0.000000
RightFoot -46.916414 -26.437500 23.194522
RightToeBase 6.330981 -0.000000 -0.000000
1032
root 24.783690 31.753031 -12.371302 177.072577 -57.976205 -173.641437
Spine -2.047928 17.815602 -14.535678
Head 0.988122 7.465245 14.810028
LeftShoulder -11.855501 -25.904427 7.871955
LeftArm -23.733111 3.000430 -46.347668
LeftForeArm -4.672750 -0.000000 10.171807
LeftHand -1.918563 -0.000000 5.103220
LeftHandThumb1 -26.253704 0.000000 33.147579
RightShoulder -5.275913 -1.027508 5.881820
RightArm 36.306738 14.493379 55.107619
RightForeArm -35.009779 0.000000 43.587754
RightHand -8.167197 -0.000000 -2.375886
RightHandThumb1 -24.326973 -0.000000 -32.862282
LeftUpLeg -41.584511 21.727310 -19.419971
LeftLeg 43.019260 -0.000000 -0.000000
LeftFoot -36.571883 34.752392 -13.759529
LeftToeBase 22.159590 -0.000000 -0.000000
RightUpLeg 1.239049 -6.924131 18.225364
RightLeg 33.940242 -0.000000 -0.000000
RightFoot -48.962428 -26.908114 23.488084
RightToeBase 7.850157 -0.000000 -0.000000
1033
root 24.859584 31.589846 -12.299953 175.942336 -57.951443 -172.658239
Spine -1.889867 18.013901 -13.375278
Head 1.351368 7.080114 14.703155
LeftShoulder -12.038872 -25.705659 7.514732
LeftArm -24.403550 2.435318 -46.301929
LeftForeArm -4.783407 -0.000000 10.219826
LeftHand -2.041348 0.000000 5.200265
LeftHandThumb1 -26.253704 0.000000 33.147579
RightShoulder -5.370205 -1.198499 6.225447
RightArm 37.501509 13.943816 54.999544
RightForeArm -35.652762 -0.000000 45.061942
RightHand -8.143339 -0.000000 -1.847545
RightHandThumb1 -24.326973 -0.000000 -32.862282
LeftUpLeg -42.248232 21.866575 -19.062887
LeftLeg 44.319461 -0.000000 -0.000000
LeftFoot -37.039485 34.836355 -13.556798
LeftToeBase 22.253558 -0.000000 -0.000000
RightUpLeg 1.469323 -6.573451 18.892626
RightLeg 33.858139 -0.000000 -0.000000
RightFoot -50.758406 -27.218485 23.831896
RightToeBase 9.666494 -0.000000 -0.000000
1034
root 24.918198 31.444916 -12.238597 174.660950 -57.948625 -171.680868
Spine -1.539501 18.095455 -12.218180
Head 1.660813 6.783530 14.708773
LeftShoulder -12.244044 -25.545191 7.250941
LeftArm -25.275636 1.820234 -46.330050
LeftForeArm -4.974881 -0.000000 10.409641
LeftHand -2.098105 -0.000000 5.395251
LeftHandThumb1 -26.253704 0.000000 33.147579
RightShoulder -5.411527 -1.476651 6.628616
RightArm 38.784047 13.314052 54.853737
RightForeArm -36.170834 -0.000000 46.406047
RightHand -8.028270 -0.000000 -1.422207
RightHandThumb1 -24.326973 -0.000000 -32.862282
LeftUpLeg -42.643138 22.081460 -18.644655
LeftLeg 45.502230 -0.000000 -0.000000
LeftFoot -37.505350 34.785099 -13.461970
LeftToeBase 22.267583 -0.000000 -0.000000
RightUpLeg 1.871959 -6.598352 19.446932
RightLeg 33.715110 -0.000000 -0.000000
RightFoot -52.328427 -27.494417 23.964218
RightToeBase 10.858740 -0.000000 -0.000000
1035
root 24.966264 31.321025 -12.181636 173.669052 -57.985180 -170.887102
Spine -1.415547 18.115824 -11.340607
Head 2.060822 6.389397 14.932383
LeftShoulder -12.374095 -25.193157 7.087249
LeftArm -26.174488 1.167561 -46.464671
LeftForeArm -5.277527 -0.000000 10.739121
LeftHand -2.311834 -0.000000 5.619806
LeftHandThumb1 -26.253704 0.000000 33.147579
RightShoulder -5.560830 -1.871509 7.114163
RightArm 40.071205 12.545356 54.784079
RightForeArm -36.572808 -0.000000 47.716229
RightHand -8.060277 -0.000000 -1.065605
RightHandThumb1 -24.326973 -0.000000 -32.862282
LeftUpLeg -43.021096 22.279928 -18.373537
LeftLeg 46.460399 -0.000000 -0.000000
LeftFoot -37.841041 34.710588 -13.273760
LeftToeBase 22.288660 -0.000000 -0.000000
RightUpLeg 2.116806 -6.886237 19.837286
RightLeg 33.600375 -0.000000 -0.000000
RightFoot -53.712618 -27.534514 24.175929
RightToeBase 12.568221 -0.000000 -0.000000
1036
root 25.011441 31.212349 -12.129712 172.668347 -58.173095 -170.201727
Spine -1.115788 18.039041 -10.562004
Head 2.376695 5.947087 15.213711
LeftShoulder -12.343329 -24.809032 6.988040
LeftArm -27.122844 0.351456 -46.697724
LeftForeArm -5.509130 -0.000000 10.985094
LeftHand -2.293555 -0.000000 5.705212
LeftHandThumb1 -26.253704 0.000000 33.147579
RightShoulder -5.588268 -2.125055 7.489781
RightArm 40.997063 11.863316 54.921570
RightForeArm -37.239812 -0.000000 49.165399
RightHand -8.009503 0.000000 -0.573675
RightHandThumb1 -24.326973 -0.000000 -32.862282
LeftUpLeg -43.176844 22.378623 -18.110920
LeftLeg 47.286748 -0.000000 -0.000000
LeftFoot -38.067295 34.566087 -13.143906
LeftToeBase 22.225022 -0.000000 -0.000000
RightUpLeg 2.454428 -7.514171 20.077127
RightLeg 33.460164 -0.000000 -0.000000
RightFoot -54.921740 -27.294533 24.333124
RightToeBase 13.672059 -0.000000 -0.000000
